<svg width="20" height="23" viewBox="0 0 29 32" fill="none" xmlns="http://www.w3.org/2000/svg">
<path d="M5.90392 6.28841C10.5857 2.05345 17.5922 1.98869 22.3387 5.85455L18.5764 5.99701C18.0908 6.01644 17.7152 6.41792 17.7346 6.90358C17.754 7.37629 18.1426 7.74539 18.6088 7.74539C18.6218 7.74539 18.6282 7.74539 18.6412 7.74539L24.4173 7.5317C24.89 7.51227 25.2591 7.13022 25.2591 6.65751V6.59275C25.2591 6.5798 25.2591 6.57333 25.2591 6.56038V6.5539L25.0454 0.842533C25.026 0.356872 24.618 -0.0187056 24.1389 0.000720843C23.6532 0.0201473 23.2776 0.421627 23.297 0.907287L23.433 4.48822C21.0824 2.56501 18.1879 1.45123 15.0926 1.29582C11.2591 1.10155 7.57459 2.41607 4.73186 4.99331C0.820671 8.5354 -0.83705 13.923 0.406241 19.0516C0.503373 19.453 0.859524 19.7185 1.25453 19.7185C1.32576 19.7185 1.39051 19.7121 1.46174 19.6926C1.92798 19.5761 2.21937 19.1034 2.10282 18.6371C1.01494 14.1302 2.46544 9.39664 5.90392 6.28841Z" fill="#5C5454"/>
<path d="M28.5875 12.6603C28.471 12.194 27.9982 11.9026 27.532 12.0192C27.0658 12.1358 26.7744 12.6085 26.8909 13.0747C27.9853 17.5816 26.5283 22.3152 23.0898 25.4234C20.6745 27.6057 17.644 28.6806 14.6264 28.6806C11.7448 28.6806 8.86969 27.7028 6.55147 25.7731L10.359 25.4299C10.8382 25.3846 11.1944 24.9637 11.1491 24.478C11.1037 23.9923 10.6828 23.6427 10.1972 23.688L4.44047 24.206C3.96128 24.2514 3.60513 24.6723 3.65046 25.1579L4.1685 30.9146C4.20735 31.3679 4.5894 31.7111 5.03621 31.7111C5.06211 31.7111 5.08801 31.7111 5.11392 31.7046C5.5931 31.6593 5.94925 31.2384 5.90392 30.7527L5.5931 27.2495C7.9437 29.1533 10.8253 30.2606 13.9011 30.416C14.1472 30.429 14.3933 30.4354 14.6329 30.4354C18.2008 30.4354 21.594 29.1274 24.2619 26.7185C28.1731 23.1764 29.8308 17.7953 28.5875 12.6603Z" fill="#5C5454"/>
</svg>
